<?xml version="1.0" standalone="no"?>
<!DOCTYPE svg PUBLIC "-//W3C//DTD SVG 20010904//EN"
 "http://www.w3.org/TR/2001/REC-SVG-20010904/DTD/svg10.dtd">
<svg version="1.0" xmlns="http://www.w3.org/2000/svg"
 width="350.000000pt" height="350.000000pt" viewBox="0 0 350.000000 350.000000"
 preserveAspectRatio="xMidYMid meet">
<metadata>
Created by potrace 1.11, written by Peter Selinger 2001-2013
</metadata>
<g transform="translate(0.000000,350.000000) scale(0.100000,-0.100000)"
fill="#000000" stroke="none">
<path d="M0 1750 l0 -1750 1750 0 1750 0 0 1750 0 1750 -1750 0 -1750 0 0
-1750z m1198 597 c104 -30 178 -75 267 -162 114 -112 185 -277 185 -430 0
-101 -24 -198 -71 -295 -68 -137 -199 -252 -349 -305 -41 -14 -41 -14 -51 13
-17 43 -1 252 28 367 25 103 25 114 -1 225 -8 36 -18 147 -23 247 -7 156 -11
185 -26 200 -17 17 -19 17 -33 -2 -13 -16 -14 -40 -9 -131 7 -107 1 -194 -14
-194 -3 0 -31 65 -60 144 -40 108 -59 147 -76 156 -27 14 -45 7 -45 -19 0 -10
22 -82 48 -159 38 -111 44 -139 30 -131 -9 5 -20 13 -23 19 -3 6 -15 5 -31 -2
-21 -10 -25 -18 -22 -44 3 -25 0 -34 -14 -37 -23 -6 -43 -51 -33 -74 5 -10 9
-36 11 -58 6 -74 15 -124 24 -130 4 -3 11 -23 15 -45 4 -22 11 -42 16 -46 5
-3 9 -22 9 -42 0 -36 -38 -263 -45 -271 -8 -8 -137 43 -191 75 -288 172 -385
562 -212 852 40 67 143 172 203 208 150 88 340 115 493 71z m1475 -14 c203
-67 364 -243 413 -451 23 -96 14 -232 -22 -340 -15 -46 -33 -86 -39 -89 -17
-6 -335 148 -357 173 -9 10 -28 60 -42 110 -14 50 -34 112 -45 137 -11 26 -27
79 -35 118 -8 39 -17 73 -20 77 -3 3 -18 -5 -32 -19 -24 -23 -25 -29 -22 -109
l3 -85 -42 -3 c-27 -2 -62 6 -103 23 -69 29 -103 27 -120 -6 -9 -15 -8 -24 2
-36 11 -13 9 -18 -10 -31 -23 -15 -28 -46 -13 -71 6 -9 4 -19 -5 -28 -20 -20
-17 -47 6 -68 13 -12 18 -25 14 -37 -7 -22 20 -68 40 -68 8 0 16 -4 18 -9 6
-16 147 -81 206 -95 49 -11 82 -31 191 -112 153 -115 153 -111 9 -159 -174
-59 -388 -26 -544 84 -247 173 -331 507 -198 781 52 106 180 233 284 283 152
73 304 82 463 30z"/>
</g>
</svg>
